<?xml version="1.0" ?><!DOCTYPE svg  PUBLIC '-//W3C//DTD SVG 1.1//EN'  'http://www.w3.org/Graphics/SVG/1.1/DTD/svg11.dtd'><svg height="32" version="1.1" viewBox="0 0 32 32" width="32" xmlns="http://www.w3.org/2000/svg" xmlns:xlink="http://www.w3.org/1999/xlink"><g/><path d="M21.257 22.388v0c-0.186 0-0.356-0.104-0.443-0.268-1.313-2.508-3.124-3.077-5.638-1.832-0.168 0.080-0.366 0.065-0.516-0.044-0.15-0.109-0.228-0.293-0.201-0.478 0.412-2.797-0.695-4.32-3.483-4.795-0.183-0.031-0.334-0.161-0.392-0.338-0.058-0.177-0.012-0.371 0.118-0.504 1.976-2.023 1.976-3.907 0-5.929-0.13-0.133-0.176-0.327-0.118-0.504 0.058-0.177 0.208-0.308 0.392-0.338 2.789-0.475 3.895-2 3.483-4.798-0.027-0.184 0.050-0.368 0.201-0.477s0.35-0.126 0.516-0.043c0.85 0.421 1.633 0.635 2.328 0.635v0c1.358 0 2.44-0.807 3.31-2.466 0.174-0.33 0.714-0.33 0.886 0 1.314 2.507 3.126 3.076 5.641 1.831 0.167-0.082 0.365-0.066 0.516 0.043 0.15 0.109 0.228 0.293 0.201 0.477-0.412 2.799 0.695 4.323 3.483 4.798 0.184 0.031 0.334 0.161 0.392 0.338 0.058 0.177 0.012 0.371-0.118 0.504-1.978 2.022-1.978 3.906 0 5.929 0.13 0.133 0.176 0.327 0.118 0.504-0.058 0.177-0.208 0.308-0.392 0.338-2.788 0.475-3.896 1.999-3.483 4.796 0.026 0.184-0.051 0.367-0.201 0.477-0.149 0.109-0.349 0.125-0.516 0.044-2.517-1.244-4.326-0.676-5.641 1.832-0.087 0.164-0.258 0.268-0.443 0.268zM17.503 18.653c1.506 0 2.766 0.756 3.754 2.249 1.395-2.104 3.334-2.753 5.727-1.858-0.107-2.526 1.101-4.19 3.537-4.87-1.572-1.982-1.572-4.039 0-6.020-2.437-0.679-3.645-2.343-3.537-4.87-2.388 0.892-4.332 0.247-5.727-1.858-0.988 1.493-2.247 2.249-3.753 2.249v0c-0.617 0-1.277-0.131-1.971-0.39 0.108 2.527-1.101 4.191-3.537 4.871 1.571 1.981 1.571 4.038 0 6.020 2.437 0.68 3.645 2.343 3.537 4.869 0.694-0.261 1.354-0.392 1.97-0.392z" fill="#000000"/><path d="M21.259 16.302c-2.832 0-5.137-2.304-5.137-5.137s2.305-5.138 5.137-5.138 5.137 2.305 5.137 5.138c0 2.833-2.305 5.137-5.137 5.137zM21.259 7.027c-2.281 0-4.137 1.856-4.137 4.138 0 2.281 1.855 4.137 4.137 4.137s4.137-1.856 4.137-4.137c0-2.282-1.856-4.138-4.137-4.138z" fill="#000000"/><path d="M21.259 13.984c-1.554 0-2.818-1.265-2.818-2.819s1.265-2.819 2.818-2.819c1.555 0 2.82 1.265 2.82 2.819s-1.266 2.819-2.82 2.819zM21.259 9.346c-1.003 0-1.818 0.816-1.818 1.819s0.815 1.819 1.818 1.819c1.004 0 1.82-0.816 1.82-1.819s-0.816-1.819-1.82-1.819z" fill="#000000"/><path d="M8.486 32.060c-0.186 0-0.356-0.104-0.443-0.268-0.988-1.886-2.337-2.325-4.247-1.379-0.167 0.080-0.365 0.065-0.516-0.044s-0.228-0.293-0.201-0.478c0.311-2.105-0.522-3.253-2.621-3.61-0.183-0.031-0.334-0.162-0.392-0.339s-0.012-0.37 0.118-0.504c1.487-1.523 1.487-2.942 0-4.465-0.13-0.134-0.175-0.327-0.118-0.504s0.208-0.308 0.392-0.339c2.099-0.357 2.932-1.505 2.621-3.61-0.027-0.184 0.050-0.368 0.201-0.478 0.151-0.109 0.35-0.125 0.516-0.044 1.91 0.945 3.258 0.507 4.247-1.378 0.173-0.33 0.713-0.33 0.886 0 0.989 1.886 2.338 2.323 4.247 1.378 0.248-0.123 0.546-0.021 0.67 0.227 0.123 0.248 0.021 0.547-0.227 0.67-2.133 1.057-3.894 0.681-5.133-1.080-1.083 1.538-2.563 2.021-4.344 1.411 0.030 1.881-0.884 3.141-2.683 3.695 1.128 1.505 1.128 3.062 0 4.568 1.799 0.555 2.713 1.814 2.683 3.695 1.783-0.609 3.263-0.128 4.344 1.411 1.082-1.539 2.563-2.021 4.344-1.411-0.030-1.881 0.885-3.141 2.685-3.695-1.292-1.723-1.106-3.513 0.558-5.216 0.193-0.196 0.51-0.201 0.707-0.008 0.197 0.192 0.201 0.51 0.008 0.707-1.488 1.522-1.488 2.941 0 4.465 0.13 0.133 0.175 0.327 0.118 0.504s-0.208 0.308-0.392 0.339c-2.1 0.357-2.934 1.505-2.623 3.61 0.027 0.185-0.050 0.368-0.201 0.478-0.149 0.11-0.348 0.125-0.516 0.044-1.911-0.945-3.259-0.507-4.247 1.379-0.084 0.165-0.255 0.269-0.441 0.269z" fill="#000000"/><path d="M8.487 27.319c-2.268 0-4.112-1.845-4.112-4.113 0-2.267 1.845-4.111 4.112-4.111s4.112 1.845 4.112 4.111c0.001 2.269-1.844 4.113-4.112 4.113zM8.487 20.095c-1.716 0-3.112 1.396-3.112 3.111 0 1.717 1.396 3.113 3.112 3.113s3.112-1.396 3.112-3.113c0.001-1.716-1.395-3.111-3.112-3.111z" fill="#000000"/><path d="M8.487 25.513c-1.272 0-2.307-1.035-2.307-2.307s1.035-2.307 2.307-2.307 2.307 1.035 2.307 2.307-1.035 2.307-2.307 2.307zM8.487 21.899c-0.721 0-1.307 0.586-1.307 1.307s0.586 1.307 1.307 1.307 1.307-0.586 1.307-1.307-0.586-1.307-1.307-1.307z" fill="#000000"/></svg>