<?xml version="1.0" ?><!DOCTYPE svg  PUBLIC '-//W3C//DTD SVG 1.1//EN'  'http://www.w3.org/Graphics/SVG/1.1/DTD/svg11.dtd'><svg height="77.003px" style="enable-background:new 0 0 130.002 77.003;" version="1.1" viewBox="0 0 130.002 77.003" width="130.002px" xml:space="preserve" xmlns="http://www.w3.org/2000/svg" xmlns:xlink="http://www.w3.org/1999/xlink"><g id="Trip_Advisor"><path d="   M33.036,30.916c7.258,0,13.145,5.873,13.145,13.118s-5.887,13.119-13.145,13.119c-7.262,0-13.684-5.484-15.625-12.581   c-2.334-8.546-1.723-24.839,15.947-27.743c17.24-1.505,28.77,9.856,28.77,27.636c0,12.975,8.332,22.579,8.332,22.579l-6.32,8.458   l-6.609-9.176l-2.256-3.143c-5.338,6.308-13.32,10.314-22.238,10.314c-16.068,0-29.094-12.999-29.094-29.033   c0-5.648,1.617-10.921,4.412-15.379L8.11,26.185c-1.365-9.033-6.609-13.477-6.609-13.477L19.89,13.28l1.725,0.287   c0,0,40.225-26.956,86.199-0.288l2.297,0.001l18.391-0.572c0,0-5.244,4.443-6.609,13.477l-0.244,2.901   c2.795,4.458,4.41,9.73,4.41,15.379c0,16.034-13.023,29.033-29.092,29.033c-16.066,0-29.092-12.999-29.092-29.033   c0-16.035,11.527-29.141,28.768-27.636c17.672,2.904,18.283,19.197,15.947,27.743c-1.939,7.097-8.363,12.581-15.623,12.581   s-13.146-5.874-13.146-13.119s5.887-13.118,13.146-13.118" style="fill:none;stroke:#000000;stroke-width:3.0021;stroke-linecap:round;stroke-linejoin:round;stroke-miterlimit:10;"/></g><g id="Layer_1"/></svg>